<?xml version="1.0" standalone="no"?>
<!DOCTYPE svg PUBLIC "-//W3C//DTD SVG 1.1//EN" "http://www.w3.org/Graphics/SVG/1.1/DTD/svg11.dtd" >
<!--
2013-9-30: Created.
-->
<svg>
<metadata>
Created by iconfont
</metadata>
<defs>

<font id="iconfont" horiz-adv-x="1024" >
  <font-face
    font-family="iconfont"
    font-weight="500"
    font-stretch="normal"
    units-per-em="1024"
    ascent="896"
    descent="-128"
  />
    <missing-glyph />
    
    <glyph glyph-name="30" unicode="&#58923;" d="M512 750.966c-249.062 0-450.965-201.904-450.965-450.965 0-249.063 201.904-450.967 450.965-450.967 249.063 0 450.965 201.905 450.965 450.967C962.965 549.061 761.062 750.966 512 750.966zM512-94.595c-217.929 0-394.595 176.666-394.595 394.596 0 217.929 176.666 394.595 394.595 394.595S906.595 517.93 906.595 300.001 729.929-94.595 512-94.595zM316.22 332.946c6.798-0.522 14.643-0.522 35.039-0.522 47.067 0 71.123 20.396 71.123 53.342 0 46.021-40.268 60.141-79.49 60.141-55.435 0-81.06-27.717-83.674-76.353l-52.297 0c4.184 83.151 59.618 120.282 137.54 120.282 93.61 0 133.356-48.636 133.356-99.886 0-33.47-16.735-65.371-54.389-74.784l0-1.046c41.314-7.321 70.601-40.791 70.601-87.335 0-62.756-43.406-116.621-142.247-116.621-34.516 0-154.274 0-154.274 123.419l52.296 0c3.138-61.709 41.837-79.49 97.271-79.49 58.572 0 91.519 27.717 91.519 69.031 0 42.36-37.653 65.371-91.519 65.371-18.827 0-25.625-1.046-30.855-1.046L316.22 332.946zM675.356 489.836c115.053 0 151.137-85.766 151.137-189.836s-36.084-189.836-151.137-189.836c-115.052 0-151.137 85.766-151.137 189.836C524.219 404.07 560.304 489.836 675.356 489.836zM675.356 445.907c-89.427 0-95.702-102.501-95.702-145.907s6.275-145.907 95.702-145.907S771.059 256.594 771.059 300 764.782 445.907 675.356 445.907z"  horiz-adv-x="1024" />

    
    <glyph glyph-name="gouwuche" unicode="&#58980;" d="M740.75 247.96875l-349.78125 0.9375L337.625 573.46875c-3.84375 30.09375-29.625 52.78125-59.90625 52.78125h-51.28125c-16.78125 0-30.28125-13.59375-30.28125-30.28125 0-16.78125 13.59375-30.28125 30.28125-30.28125l51.1875-0.9375 53.4375-324.65625c3.84375-30.09375 29.625-52.78125 59.90625-52.78125H740.75c16.78125 0 30.28125 13.59375 30.28125 30.28125 0.09375 16.78125-13.5 30.375-30.28125 30.375zM702.03125 167.53125c-21.375 0-38.625-17.34375-38.625-38.625 0-21.375 17.34375-38.625 38.625-38.625s38.625 17.34375 38.625 38.625c0.09375 21.28125-17.25 38.625-38.625 38.625zM421.71875 167.53125c-21.375 0-38.625-17.34375-38.625-38.625 0-21.375 17.34375-38.625 38.625-38.625 21.375 0 38.625 17.34375 38.625 38.625 0 21.28125-17.34375 38.625-38.625 38.625zM813.875 562.78125c-11.53125 13.6875-28.40625 21.5625-46.3125 21.5625H404.65625c-16.78125 0-30.28125-13.59375-30.28125-30.28125 0-16.78125 13.59375-30.28125 30.28125-30.28125l362.90625 0.9375-34.5-172.03125H443.28125c-16.78125 0-30.28125-13.59375-30.28125-30.28125 0-16.78125 13.59375-30.28125 30.28125-30.28125h289.78125c29.34375 0 54.375 21 59.34375 49.21875l34.6875 172.21875c3.09375 17.53125-1.6875 35.53125-13.21875 49.21875zM512.09375 864C247.4375 864 32.1875 648.75 32.1875 384.09375c0-264.65625 215.25-479.90625 479.90625-479.90625 264.65625 0 479.90625 215.25 479.90625 479.90625C992 648.75 776.75 864 512.09375 864z m0-899.15625c-231.1875 0-419.25 188.0625-419.25 419.25S280.90625 803.4375 512.09375 803.4375s419.34375-188.0625 419.34375-419.34375c0-231.1875-188.15625-419.25-419.34375-419.25z"  horiz-adv-x="1024" />

    
    <glyph glyph-name="radio" unicode="&#58963;" d="M512.6101632 861.8441536c-263.58621227 0-477.2645536-213.67943253-477.2645536-477.2645536 0-263.58621227 213.67834133-477.2645536 477.2645536-477.2645536 263.58512107 0 477.2645536 213.67834133 477.2645536 477.2645536C989.875808 648.16472107 776.19528427 861.8441536 512.6101632 861.8441536zM820.72847787 514.8882304L450.8712352 145.05500053000003c-9.32163733-9.32163733-21.53254507-13.98245547-33.74454507-13.98245546-12.21090773 0-24.42290773 4.66081813-33.74454506 13.98245546L192.50033707 335.91388693c-18.64327467 18.620352-18.64327467 48.84472427 0 67.48799894 18.64327467 18.64327467 48.84472427 18.64327467 67.48799893 0l157.13835413-157.11543254 336.1126976 336.089776c18.64327467 18.64327467 48.84472427 18.64327467 67.48799894 0C839.37066133 563.73295467 839.37066133 533.53150507 820.72847787 514.8882304z"  horiz-adv-x="1024" />

    
    <glyph glyph-name="RadioButton" unicode="&#59113;" d="M512-42.752C747.648-42.752 938.666667 148.309333 938.666667 383.957333c0 235.690667-191.061333 426.752-426.709334 426.752-235.690667 0-426.752-191.061333-426.752-426.752 0-235.648 191.061333-426.709333 426.752-426.709333z m0 64A362.752 362.752 0 1 0 512 746.666667a362.752 362.752 0 0 0 0-725.461334z"  horiz-adv-x="1024" />

    
    <glyph glyph-name="jianhao" unicode="&#59471;" d="M668.734694 363.102041H355.265306c-11.493878 0-20.897959 9.404082-20.897959 20.897959s9.404082 20.897959 20.897959 20.897959h313.469388c11.493878 0 20.897959-9.404082 20.897959-20.897959s-9.404082-20.897959-20.897959-20.897959zM512-33.959184c-230.4 0-417.959184 187.559184-417.959184 417.959184s187.559184 417.959184 417.959184 417.959184 417.959184-187.559184 417.959184-417.959184-187.559184-417.959184-417.959184-417.959184z m0 794.122449c-207.412245 0-376.163265-168.75102-376.163265-376.163265s168.75102-376.163265 376.163265-376.163265 376.163265 168.75102 376.163265 376.163265-168.75102 376.163265-376.163265 376.163265z"  horiz-adv-x="1024" />

    
    <glyph glyph-name="21" unicode="&#58902;" d="M512-28.499999709999997c227.8125 0 412.49999971 184.68749971 412.49999971 412.49999971S739.8125 796.49999971 512 796.49999971 99.50000029 611.8125 99.50000029 384s184.68749971-412.49999971 412.49999971-412.49999971z m0 37.49999942C304.8875 8.999999709999997 136.99999971 176.88750000000005 136.99999971 384S304.8875 759.00000029 512 759.00000029s375.00000029-167.88750029 375.00000029-375.00000029-167.88750029-375.00000029-375.00000029-375.00000029zM324.50000029 365.25000029h374.99999942a18.74999971 18.74999971 0 1 1 0 37.49999942H324.50000029a18.74999971 18.74999971 0 0 1 0-37.49999942zM493.25000029 571.49999971v-374.99999942a18.74999971 18.74999971 0 1 1 37.49999942 0V571.49999971a18.74999971 18.74999971 0 1 1-37.49999942 0z"  horiz-adv-x="1024" />

    
    <glyph glyph-name="xiaoxi" unicode="&#58899;" d="M512.53333333 841.92c-264.74666667 0-477.86666667-186.45333333-477.86666666-416.32 0-141.54666667 81.6-266.45333333 204.8-343.04v-128.21333333c0-16.64 11.62666667-28.26666667 26.66666666-28.26666667 5.01333333 0 10.02666667 1.70666667 13.33333334 3.30666667L409.28 16c33.28-6.61333333 66.56-8.32 101.54666667-8.32C775.68 7.67999999999995 988.8 194.13333333000003 988.8 424c1.6 231.46666667-213.12 417.92-476.26666667 417.92zM297.70666667 357.33333332999996c-31.68 0-56.64 26.66666667-56.64 56.64 0 31.68 26.66666667 56.64 56.64 56.64 31.68 0 56.64-26.66666667 56.64-56.64 1.6-29.97333333-24.96-56.64-56.64-56.64z m218.13333333 0c-31.68 0-56.64 26.66666667-56.64 56.64 0 31.68 26.66666667 56.64 56.64 56.64 31.68 0 56.64-26.66666667 56.64-56.64s-26.66666667-56.64-56.64-56.64z m209.81333333 0c-31.68 0-56.64 26.66666667-56.64 56.64 0 31.68 26.66666667 56.64 56.64 56.64 31.68 0 56.64-26.66666667 56.64-56.64S757.33333333 357.33333332999996 725.65333333 357.33333332999996z m0 0"  horiz-adv-x="1024" />

    
    <glyph glyph-name="xiaolian" unicode="&#59034;" d="M512 864C247.32637438 864 32 648.6736256199999 32 384c0-264.67362562 215.32637438-480 480-480 264.71262 0 480.05849156 215.32637438 480.05849156 480C992.05849156 648.6736256199999 776.71262 864 512 864L512 864zM512-55.99187625000002c-242.62236469 0-440.01137344 197.36951156-440.01137344 439.99187625 0 242.62236469 197.36951156 440.01137344 440.01137344 440.01137344 242.66135906 0 440.05036781-197.36951156 440.05036781-440.01137344C952.05036781 141.37763530999996 754.66135906-55.99187625000002 512-55.99187625000002L512-55.99187625000002zM512-55.99187625000002M740.23347781 274.44559125c-10.43096813 3.70445625-21.83679281-1.67675344-25.5802425-12.08822438-30.53251594-85.20248625-111.89406562-142.465575-202.49725781-142.46557499-90.93464438 0-172.41317719 57.57504375-202.75072125 143.26495781-3.68495906 10.43096813-15.09078375 15.831675-25.54124906 12.18571031-10.39197375-3.68495906-15.87066937-15.12977812-12.18571032-25.54124906 35.97221625-101.63857219 132.61952156-169.89804656 240.4581825-169.89804656 107.40972375 0 203.92054875 67.88902875 240.14622844 168.96218343C756.04565562 259.23782438 750.62545156 270.72163780999995 740.23347781 274.44559125L740.23347781 274.44559125zM740.23347781 274.44559125M326.28977656 546.91807125c40.18359844 0 72.91929-39.59868375 72.91929-88.26353625 0-11.03537906 8.96868281-20.00406187 20.00406188-20.00406187 11.03537906 0 20.00406187 8.96868281 20.00406187 20.00406187 0 70.71611344-50.65356 128.27166-112.90791656 128.27166s-112.88841937-57.55554656-112.88841938-128.27166c0-11.03537906 8.96868281-20.00406187 20.00406188-20.00406187 11.03537906 0 20.00406187 8.96868281 20.00406187 20.00406187C253.37048656 507.33888469 286.06718375 546.91807125 326.28977656 546.91807125L326.28977656 546.91807125zM326.28977656 546.91807125M697.768715 586.90669781c-62.23485937 0-112.90791656-57.55554656-112.90791656-128.27166 0-11.03537906 8.96868281-20.00406187 20.00406187-20.00406187 11.03537906 0 20.00406187 8.96868281 20.00406188 20.00406187 0 48.6648525 32.71619438 88.26353625 72.91929 88.26353625 40.20309563 0 72.88029562-39.59868375 72.88029562-88.26353625 0-11.03537906 8.96868281-20.00406187 20.00406188-20.00406187 11.03537906 0 20.00406187 8.96868281 20.00406187 20.00406187C810.67663156 529.39014563 760.04256875 586.90669781 697.768715 586.90669781L697.768715 586.90669781zM697.768715 586.90669781"  horiz-adv-x="1025" />

    
    <glyph glyph-name="kulian" unicode="&#59072;" d="M849.824 43.96799999999996C756.416-49.34400000000005 643.808-96 512-96c-131.808 0-244.8 46.944-338.88 141.12C79.04 139.20000000000005 32 252.096 32 384c0 131.808 47.04 244.8 141.12 338.88C267.2 816.96 380.192 864 512 864c131.808 0 244.8-47.04 338.88-141.12C944.96 628.8 992 515.808 992 384 992 252.096 944.576 138.72000000000003 849.824 43.96799999999996zM825.344 697.344C737.888 784.704 633.44 828.48 512 828.48c-121.44 0-225.888-43.68-313.344-131.136C111.296 609.8879999999999 67.52 505.44 67.52 384c0-121.44 43.68-225.888 131.136-313.344C286.112-16.799999999999955 390.56-60.48000000000002 512-60.48000000000002c121.44 0 225.888 43.68 313.344 131.136C912.704 158.11199999999997 956.48 262.55999999999995 956.48 384 956.48 505.44 912.704 609.8879999999999 825.344 697.344zM403.136 457.344C389.792 444 372.704 437.376 351.968 437.376c-20.736 0-37.728 6.624-51.072 19.968C287.552 470.688 280.928 487.68 280.928 508.416c0 20.736 6.624 37.728 19.968 51.072C314.24 572.928 331.232 579.552 351.968 579.552c20.736 0 37.728-6.72 51.072-19.968C416.48 546.24 423.104 529.152 423.104 508.416 423.104 487.68 416.48 470.688 403.136 457.344zM309.824 81.79200000000003L305.312 81.79200000000003C293.504 87.64800000000002 289.76 95.80799999999999 294.176 106.17600000000004c16.32 45.888 44.448 82.944 84.48 111.072C418.688 245.47199999999998 463.136 259.58399999999995 512 259.58399999999995c48.864 0 93.312-14.112 133.344-42.24 40.032-28.128 68.16-65.184 84.48-111.072C735.68 94.36800000000005 732.032 86.976 718.688 84 706.784 78.048 699.392 81.024 696.416 92.928 683.072 131.42399999999998 659.456 162.91200000000003 625.376 187.29600000000005 591.296 211.77599999999995 553.472 223.96799999999996 512 223.96799999999996c-41.472 0-79.296-12.192-113.376-36.672C364.544 162.91200000000003 340.928 131.42399999999998 327.584 92.928 324.608 85.44000000000005 318.656 81.79200000000003 309.824 81.79200000000003zM387.584 508.416c0 23.616-11.808 35.52-35.52 35.52s-35.52-11.904-35.52-35.52c0-23.712 11.808-35.52 35.52-35.52S387.584 484.704 387.584 508.416zM723.104 457.344C709.76 444 692.768 437.376 672.032 437.376c-20.736 0-37.728 6.624-51.072 19.968C607.52 470.688 600.896 487.68 600.896 508.416c0 20.736 6.624 37.728 19.968 51.072 13.344 13.344 30.336 19.968 51.072 19.968 20.736 0 37.728-6.72 51.072-19.968C736.448 546.24 743.072 529.152 743.072 508.416 743.072 487.68 736.448 470.688 723.104 457.344zM707.552 508.416c0 23.616-11.808 35.52-35.52 35.52-23.712 0-35.52-11.904-35.52-35.52 0-23.712 11.808-35.52 35.52-35.52C695.744 472.896 707.552 484.704 707.552 508.416z"  horiz-adv-x="1024" />

    
    <glyph glyph-name="lianxikefu" unicode="&#58887;" d="M132.16 130.88C4.48 358.48 96.08 651.92 334.88 760.48 552.56 859.36 816.8 761.2 920 546.64c66.48-138.16 54.32-300.64-25.2-430.64-13.76-22.48 21.52-42.96 35.2-20.56 147.52 241.04 60.96 566.4-194.16 693.6-236.56 117.84-534.4 20.24-652.72-217.12-73.04-146.48-65.92-319.36 13.84-461.6 12.8-22.96 48.08-2.4 35.2 20.56zM844.24 62.56m-77.68 0a77.68 77.68 0 1 1 155.36 0 77.68 77.68 0 1 1-155.36 0ZM844.24-27.12c-49.44 0-89.68 40.24-89.68 89.68 0 49.44 40.24 89.68 89.68 89.68 49.44 0 89.68-40.24 89.68-89.68 0-49.44-40.24-89.68-89.68-89.68z m0 155.36c-36.24 0-65.68-29.44-65.68-65.68 0-36.24 29.44-65.68 65.68-65.68 36.24 0 65.68 29.44 65.68 65.68 0 36.24-29.44 65.68-65.68 65.68zM317.92 391.44V532.88c0 6.16 4.96 11.12 11.12 11.12h19.84c6.16 0 11.12-4.96 11.12-11.12v-141.44c0-6.16-4.96-11.12-11.12-11.12h-19.84c-6.16 0-11.12 4.96-11.12 11.12zM672 391.44V532.88c0 6.16 4.96 11.12 11.12 11.12h21.2c6.16 0 11.12-4.96 11.12-11.12v-141.44c0-6.16-4.96-11.12-11.12-11.12h-21.2c-6.16 0-11.12 4.96-11.12 11.12zM712.48 204.96c-78.96-81.84-312.72-81.84-380 0-11.28 0-20.48 9.2-20.48 20.48 0 11.28 9.2 20.48 20.48 20.48 90.64-99.36 289.36-87.68 380 0 11.28 0 20.48-9.2 20.48-20.48 0-11.36-9.12-20.48-20.48-20.48z"  horiz-adv-x="1024" />

    
    <glyph glyph-name="dkw_xiaoxi" unicode="&#58886;" d="M288 469.333333a53.333333 53.333333 0 1 1 53.333333-53.333333 53.333333 53.333333 0 0 1-53.333333 53.333333z m0-64a10.666667 10.666667 0 1 0 10.666667 10.666667 10.666667 10.666667 0 0 0-10.666667-10.666667zM522.666667 469.333333a53.333333 53.333333 0 1 1 53.333333-53.333333 53.333333 53.333333 0 0 1-53.333333 53.333333z m0-64a10.666667 10.666667 0 1 0 10.666666 10.666667 10.666667 10.666667 0 0 0-10.666666-10.666667zM757.333333 469.333333a53.333333 53.333333 0 1 1 53.333334-53.333333 53.333333 53.333333 0 0 1-53.333334 53.333333z m0-64a10.666667 10.666667 0 1 0 10.666667 10.666667 10.666667 10.666667 0 0 0-10.666667-10.666667zM512 853.333333C224.853333 853.333333 0 666.666667 0 426.666667a413.44 413.44 0 0 1 166.826667-327.04l-42.666667-126.72a43.946667 43.946667 0 0 1 0-50.773334 29.653333 29.653333 0 0 1 21.333333-8.533333 97.066667 97.066667 0 0 1 42.666667 14.506667c31.146667 17.066667 66.986667 35.626667 95.786667 50.773333L322.133333 0a673.066667 673.066667 0 0 1 189.866667-21.333333c282.24 0 512 200.96 512 448C1024 666.666667 799.146667 853.333333 512 853.333333z m0-832a604.586667 604.586667 0 0 0-185.173333 21.333334 21.333333 21.333333 0 0 1-17.28-1.493334c-9.6-5.333333-25.813333-13.653333-45.226667-23.893333-29.226667-15.146667-65.28-33.92-96.853333-51.2l-2.346667-1.28 46.72 135.893333a21.333333 21.333333 0 0 1-7.68 24.32A373.12 373.12 0 0 0 42.666667 426.666667C42.666667 642.773333 248.746667 810.666667 512 810.666667s469.333333-168.746667 469.333333-384c0-222.72-210.56-405.333333-469.333333-405.333334z"  horiz-adv-x="1024" />

    
    <glyph glyph-name="play_icon" unicode="&#58983;" d="M512 884c-275.69 0-500-224.31-500-500s224.31-500 500-500 500 224.31 500 500-224.31 500-500 500zM512-60.44c-245.060 0-444.44 199.38-444.44 444.44s199.38 444.44 444.44 444.44 444.44-199.38 444.44-444.44-199.38-444.44-444.44-444.44zM749.63 407.11l-333.33 222.22c-4.33 2.923-9.667 4.666-15.41 4.666-15.341 0-27.778-12.435-27.78-27.776l-0-444.44c0.002-15.341 12.439-27.776 27.78-27.776 5.743 0 11.080 1.743 15.509 4.729l333.231 222.157c7.498 5.054 12.364 13.514 12.364 23.11 0 9.596-4.866 18.056-12.265 23.047zM428.63 213.67v340.66l255.52-170.33z"  horiz-adv-x="1024" />

    
    <glyph glyph-name="aixin" unicode="&#58933;" d="M890.2 687.8c-91.8 91.9-242.1 91.9-334 0L544.4 676c-18.2-18.2-47.6-18.2-65.8 0l-11.8 11.8c-91.9 91.9-242.1 91.9-334 0C41 596 24.7 362.1 203.6 173.9 304 68.2 412.4 13.7 470-9.9c26.6-10.9 56.5-10.9 83 0 57.6 23.6 166 78.1 266.4 183.8 178.9 188.2 162.6 422 70.8 513.9z"  horiz-adv-x="1024" />

    
    <glyph glyph-name="heart" unicode="&#58880;" d="M667.786667 778.666667C832.864 778.666667 938.666667 646.293333 938.666667 468.138667c0-138.250667-125.098667-290.506667-371.573334-461.589334a96.768 96.768 0 0 0-110.186666 0C210.432 177.63199999999995 85.333333 329.88800000000003 85.333333 468.138667 85.333333 646.293333 191.136 778.666667 356.213333 778.666667c59.616 0 100.053333-20.832 155.786667-68.096C567.744 757.8240000000001 608.170667 778.666667 667.786667 778.666667z m0-63.146667c-41.44 0-70.261333-15.189333-116.96-55.04-2.165333-1.845333-14.4-12.373333-17.941334-15.381333a32.32 32.32 0 0 0-41.770666 0c-3.541333 3.018667-15.776 13.536-17.941334 15.381333-46.698667 39.850667-75.52 55.04-116.96 55.04C230.186667 715.52 149.333333 614.7413329999999 149.333333 469.301333 149.333333 358.4 262.858667 220.75733300000002 493.632 61.17333299999996a32.352 32.352 0 0 1 36.736 0C761.141333 220.746667 874.666667 358.4 874.666667 469.301333c0 145.44-80.853333 246.218667-206.88 246.218667z"  horiz-adv-x="1024" />

    
    <glyph glyph-name="pingjia" unicode="&#58915;" d="M490.816 197.867a21.355 21.355 0 0 0-4.907-2.987l-176.938-78.443c-50.134-19.797-89.11 18.774-70.55 69.803l0.918 2.176 84.138 170.09a21.333 21.333 0 0 0 3.435 5.014 21.564 21.564 0 0 0 3.264 4.16l422.379 422.4a64 64 0 0 0 90.496 0l75.434-75.435a64 64 0 0 0 0-90.517L496.107 201.749a21.333 21.333 0 0 0-5.291-3.882zM360.576 337.28l-82.432-166.656c-5.461-15.83-0.235-20.587 14.336-14.827l172.928 76.651L360.576 337.28z m135.53-75.179l316.8 316.779-105.6 105.6-316.8-316.8 105.6-105.6z m346.945 346.944l45.269 45.27a21.333 21.333 0 0 1 0 30.165l-75.435 75.413a21.333 21.333 0 0 1-30.165 0l-45.248-45.226 105.6-105.6zM896 441.728a21.333 21.333 0 0 0 42.667 0v-335.061a149.333 149.333 0 0 0-149.334-149.334H234.667A149.333 149.333 0 0 0 85.333 106.667V661.333A149.333 149.333 0 0 0 234.667 810.667h338.496a21.333 21.333 0 1 0 0-42.667H234.667A106.667 106.667 0 0 1 128 661.333v-554.666A106.667 106.667 0 0 1 234.667 0h554.666A106.667 106.667 0 0 1 896 106.667V441.728z"  horiz-adv-x="1024" />

    
    <glyph glyph-name="wj-pj" unicode="&#59192;" d="M796.9 64h-44.5l-14.3 43.9h-69.6l-14-43.9h-44.2l70 191.4h47.9L796.9 64z m-68.4 75.4l-21.7 66.4c-1.4 4.2-2.4 9.8-3 16.7h-1.1c-0.5-5.6-1.6-11-3.3-16.2l-21.9-66.9h51zM960 129.39999999999998h-51.6v-51.7h-25.9v51.7h-51.9v26.1h51.9v51.9h25.9v-51.9H960v-26.1zM671.8 0H160c-17.7 0-32 14.3-32 32V736c0 17.7 14.3 32 32 32h383.9v-160c0-35.3 28.6-64 64-64h159.9v-192c0-17.7 14.3-32 32-32s32 14.3 32 32V625.8c0 8.5-3.3 16.6-9.3 22.6L649.2 822.6c-6 6-14.2 9.4-22.7 9.4H128c-35.3 0-64-28.7-64-64v-768c0-35.3 28.6-64 64-64h543.9c17.7 0 32 14.3 32 32-0.1 17.7-14.4 32-32.1 32z m-32 608c-17.7 0-32 14.3-32 32V768l159.9-160H639.8zM543.8 224H223c-17.7 0-32-14.3-32-32s14.3-32 32-32h320.9c17.7 0 32 14.3 32 32-0.1 17.7-14.4 32-32.1 32zM606.8 416H223c-17.7 0-32-14.3-32-32s14.3-32 32-32h383.9c17.7 0 32 14.3 32 32-0.1 17.7-14.4 32-32.1 32zM223 544h191.9c17.7 0 32 14.3 32 32s-14.3 32-32 32H223c-17.7 0-32-14.3-32-32s14.3-32 32-32z"  horiz-adv-x="1024" />

    
    <glyph glyph-name="caidan_wujiaoxingkong" unicode="&#59061;" d="M790.73813333-67.17013333c-4.75306667 0-9.504 1.4688-13.5392 4.4l-266.42986666 193.568-266.4192-193.568a23.0496 23.0496 0 0 0-27.0784 0 23.0368 23.0368 0 0 0-8.36586667 25.744l101.76853333 313.20106666L44.24533333 469.74293333a23.0368 23.0368 0 0 0-8.368 25.74293334 23.04 23.04 0 0 0 21.90613334 15.9168H387.104l101.76213333 313.20106666a23.0368 23.0368 0 0 0 21.90293334 15.91466667 23.03573333 23.03573333 0 0 0 21.9072-15.91466667l101.76853333-313.20106666H963.76533333c9.96906667 0 18.816-6.4256 21.904-15.9168 3.072-9.48266667-0.29866667-19.88053333-8.36693333-25.74293334l-266.4352-193.568 101.776-313.2c3.072-9.48373333-0.30186667-19.88266667-8.36693333-25.744a23.00053333 23.00053333 0 0 0-13.5392-4.40106666zM128.66666667 465.3408l222.6176-161.74293333a23.03786667 23.03786667 0 0 0 8.36693333-25.74506667l-85.03573333-261.69706667 222.6176 161.73546667a23.04213333 23.04213333 0 0 0 27.07733333 0l222.61866667-161.73546667-85.0432 261.696a23.04853333 23.04853333 0 0 0 8.36373333 25.74613334l222.64106667 161.74293333h-275.17866667a23.03893333 23.03893333 0 0 0-21.90506667 15.91466667l-85.03786666 261.70666666-85.02613334-261.70666666a23.04106667 23.04106667 0 0 0-21.90506666-15.91466667H128.66666667z"  horiz-adv-x="1024" />

    
    <glyph glyph-name="shiwujiaoxing" unicode="&#58932;" d="M193.27073621-85.40068637000002l113.34994489 358.75889152L16.94523619 521.06314183l364.57920285 0L512.05705045 854.85954845l146.36585984-333.79640548 348.63185352 0L733.8343003 273.52469958999995 850.68760974-86.87002624000002 513.86985813 138.91356330999997 193.27073621-85.40068637000002z"  horiz-adv-x="1024" />

    
    <glyph glyph-name="shumajiadian" unicode="&#59017;" d="M512.5 514.268c-123.997 0-224.511-100.557-224.511-224.554 0-124.027 100.513-224.592 224.511-224.592 123.99 0 224.511 100.565 224.511 224.592 0 123.997-100.521 224.554-224.511 224.554zM511.327 129.11c-88.114 0-159.539 71.46-159.539 159.605 0 88.113 71.426 159.573 159.539 159.573 88.106 0 159.54-71.46 159.54-159.573 0-88.146-71.434-159.605-159.54-159.605zM900.153 639.405h-148.772l-55.201 112.681c-5.431 10.241-15.121 16.145-25.226 16.576-0.945 0.109-2.040 0.171-3.149 0.171-0.001 0-0.003-0-0.004-0l-304.603 0c-6.112 0-11.8-1.911-16.57-5.189-4.767-2.825-8.903-7.068-11.814-12.558l-55.636-111.681h-85.618v32.145c0 18.114-14.677 32.816-32.791 32.816-18.107 0-32.791-14.702-32.791-32.816v-32.145h-4.136c-67.293 0-121.842-54.574-121.842-121.897v-458.625c0-67.317 54.549-121.891 121.842-121.891h776.311c67.299 0 121.847 52.574 121.847 119.891v460.624c0 67.324-54.548 121.898-121.847 121.898zM961.080 58.882c0-33.671-27.274-60.955-60.927-60.955h-776.311c-33.646 0-60.927 27.284-60.927 60.955v456.625c0 33.707 27.28 60.961 60.927 60.961l177.975 0.152c9.515 0.965 18.474 6.77 23.612 16.461l55.429 111.284h269.66l54.503-111.284c5.241-9.878 14.444-15.726 24.161-16.518v-0.095h170.97c33.652 0 60.927-27.254 60.927-60.961v-456.625zM799.821 511.768c-17.654 0-31.959-14.297-31.959-31.951 0-17.648 14.305-31.977 31.959-31.977 17.647 0 31.958 14.329 31.958 31.977 0.001 17.654-14.31 31.951-31.958 31.951z"  horiz-adv-x="1024" />

    
    <glyph glyph-name="noun__cc" unicode="&#58898;" d="M331.1616 102.4a12.7616 12.7616 0 0 0-9.0496 3.7504L131.7504 296.512a12.7872 12.7872 0 0 0 0 18.0992L683.7888 866.6496a12.7872 12.7872 0 0 0 18.0992 0l38.0672-38.0672-18.0992-18.0992-29.0176 29.0176L158.8992 305.5616l172.2624-172.2624 533.9392 533.9392-86.1312 86.1312 18.0992 18.0992 95.1808-95.1808a12.7872 12.7872 0 0 0 0-18.0992L340.2112 106.1504a12.8 12.8 0 0 0-9.0496-3.7504zM758.9888 809.536l19.0336-19.0336-18.0992-18.0992-19.0336 19.0336zM274.048 252.3776a52.8512 52.8512 0 0 0-37.6064 15.5776c-10.048 10.048-15.5776 23.3984-15.5776 37.6064s5.5296 27.5584 15.5776 37.6064a52.8256 52.8256 0 0 0 37.6064 15.5776c14.208 0 27.5584-5.5296 37.6064-15.5776a53.2224 53.2224 0 0 0 0-75.2 52.7872 52.7872 0 0 0-37.6064-15.5904z m0 80.7552a27.392 27.392 0 0 1-19.4944-8.0768 27.392 27.392 0 0 1-8.0768-19.4944c0-7.3728 2.8672-14.2976 8.0768-19.5072 10.4192-10.4192 28.5824-10.4064 39.0016 0 10.752 10.752 10.752 28.2496 0 39.0016a27.392 27.392 0 0 1-19.5072 8.0768zM787.5072 685.7984l57.1136-57.1136-18.0992-18.0992-57.1136 57.1136zM711.4112 647.744l76.1472-76.16-18.112-18.0864-76.1344 76.1344zM625.7536 790.5024l38.0672-38.0672-18.112-18.0992-38.0672 38.0672zM568.64 733.4016l38.0672-38.08-18.0992-18.0992-38.08 38.08zM511.5264 676.3008l38.08-38.08-18.0992-18.0992-38.08 38.08zM454.4256 619.1872l38.0672-38.0672-18.0992-18.112-38.0672 38.0672zM397.3248 562.0736l38.0672-38.0672-18.0992-18.0992-38.0672 38.0672zM340.2112 504.96l38.08-38.0672-18.112-18.0992-38.0672 38.0672zM283.0976 447.872l38.08-38.08-18.0992-18.0992-38.08 38.08zM673.3312 571.6096l57.1008-57.1136-18.0992-18.0992-57.1008 57.1008zM597.1712 533.5296l76.1344-76.1472-18.0992-18.0992-76.1344 76.1344zM483.008 419.3024l76.1344-76.1344-18.0992-18.0992-76.1344 76.1344zM444.9024 343.168l57.1008-57.088-18.0992-18.112-57.088 57.1008zM368.768 305.1008l76.1472-76.16-18.0992-18.0864-76.1472 76.1344zM559.1168 457.3824l57.1136-57.1008-18.0992-18.112-57.1136 57.1136zM330.7392 228.9408l57.1008-57.1136-18.0992-18.0992-57.1136 57.1136z"  horiz-adv-x="1024" />

    
    <glyph glyph-name="dingdanliebiao" unicode="&#58972;" d="M704 704V768h-64c0 70.4-57.6 128-128 128S384 838.4 384 768H320v-64H128v-832h768V704h-192zM384 704h64V768c0 38.4 25.6 64 64 64s64-25.6 64-64v-64h64v-64H384V704z m448-768H192V640h128v-64h384V640h128v-704zM320 448h384v-64H320zM320 320h384v-64H320zM320 192h384v-64H320z"  horiz-adv-x="1024" />

    
    <glyph glyph-name="tuihuanhuo" unicode="&#58916;" d="M513.1-61.799999999999955c-60.3 0-118.9 11.8-174 35.1C285.8-4.2000000000000455 238 28 197 69.10000000000002c-41 41-73.3 88.8-95.8 142.1-23.3 55.1-35.1 113.7-35.1 174s11.8 118.9 35.1 174c22.5 53.2 54.7 101 95.8 142.1 41 41 88.8 73.3 142.1 95.8 55.1 23.3 113.7 35.1 174 35.1s118.9-11.8 174-35.1c53.2-22.5 101-54.7 142.1-95.8 41-41 73.3-88.8 95.8-142.1 23.3-55.1 35.1-113.7 35.1-174s-11.8-118.9-35.1-174c-22.5-53.2-54.7-101-95.8-142.1s-88.8-73.3-142.1-95.8c-55.2-23.3-113.7-35.1-174-35.1z m0 849.6c-222 0-402.6-180.6-402.6-402.6 0-222 180.6-402.6 402.6-402.6 222 0 402.6 180.6 402.6 402.6 0 222-180.6 402.6-402.6 402.6zM724.1 442.4H302c-11.9 0-21.6 9.7-21.6 21.6s9.7 21.6 21.6 21.6h422c11.9 0 21.6-9.7 21.6-21.6s-9.6-21.6-21.5-21.6zM302 442.4c-4.7 0-9.5 1.6-13.5 4.7-9.3 7.5-10.8 21-3.3 30.3L396.3 616c7.5 9.3 21 10.8 30.3 3.3 9.3-7.5 10.8-21 3.3-30.3l-111-138.5c-4.3-5.3-10.5-8.1-16.9-8.1zM724.1 284.79999999999995H302c-11.9 0-21.6 9.7-21.6 21.6S290.1 328 302 328h422c11.9 0 21.6-9.7 21.6-21.6s-9.6-21.6-21.5-21.6zM613 146.20000000000005c-4.7 0-9.5 1.6-13.5 4.7-9.3 7.5-10.8 21-3.3 30.4l111.1 138.5c7.5 9.3 21 10.8 30.4 3.3 9.3-7.5 10.8-21 3.3-30.4L629.9 154.29999999999995c-4.3-5.3-10.6-8.1-16.9-8.1z"  horiz-adv-x="1024" />

    
    <glyph glyph-name="address_icon" unicode="&#58966;" d="M512 884c-199.11 0-361.11-162-361.11-361.11 0-191.45 325.36-610.46 339.22-628.2 5.128-6.531 13.023-10.688 21.89-10.688 8.867 0 16.762 4.157 21.845 10.628 13.905 17.8 339.265 436.81 339.265 628.26 0 199.11-162 361.11-361.11 361.11zM512-42.54c-102.13 135.46-305.56 432.67-305.56 565.43 0 168.48 137.080 305.55 305.56 305.55s305.56-137.070 305.56-305.55c0-132.76-203.43-429.97-305.56-565.43zM512 717.33c-107.2 0-194.44-87.23-194.44-194.44s87.24-194.45 194.44-194.45 194.44 87.23 194.44 194.44-87.24 194.45-194.44 194.45zM512 384c-76.58 0-138.89 62.31-138.89 138.89s62.31 138.89 138.89 138.89 138.89-62.31 138.89-138.89-62.31-138.89-138.89-138.89z"  horiz-adv-x="1024" />

    
    <glyph glyph-name="shezhi" unicode="&#59178;" d="M230.792 305.072l-87.096-50.285 72.5-125.574L303.47 179.6c36.875-37.615 83.847-65.296 136.53-78.656V0h145V101.2c52.449 13.499 99.195 41.204 135.891 78.77l87.913-50.757 72.5 125.574-87.957 50.782C800.289 330.526 804 356.829 804 384c0 27.17-3.71 53.474-10.653 78.431l87.957 50.782-72.5 125.574-87.913-50.756C684.195 625.596 637.45 653.3 585 666.8V768H440v-100.944c-52.683-13.36-99.655-41.04-136.53-78.656l-87.274 50.387-72.5-125.574 87.096-50.285C223.76 437.823 220 411.351 220 384c0-27.35 3.76-53.823 10.792-78.928z m-71.035 27.024A358.94 358.94 0 0 0 156 384c0 13.516 0.753 26.856 2.22 39.98l-77.241 44.595c-15.305 8.837-20.55 28.408-11.713 43.713l104.5 181c8.837 15.305 28.408 20.549 43.713 11.712l73.111-42.21c25.798 20.515 54.508 37.525 85.41 50.31V800c0 17.673 14.327 32 32 32h209c17.673 0 32-14.327 32-32v-87.316c30.522-12.737 58.89-29.6 84.41-49.895L806.521 705c15.305 8.837 34.876 3.593 43.713-11.713l104.5-181c8.836-15.304 3.592-34.875-11.713-43.712l-77.24-44.595A359.878 359.878 0 0 0 868 384a358.94 358.94 0 0 0-3.757-51.904l73.778-42.596c15.305-8.837 20.55-28.407 11.713-43.713l-104.5-181c-8.837-15.304-28.408-20.548-43.713-11.712l-77.633 44.821A355.51 355.51 0 0 0 649 55.316V-32c0-17.673-14.327-32-32-32H408c-17.673 0-32 14.327-32 32v86.9a355.487 355.487 0 0 0-75.888 42.996l-77.633-44.82c-15.305-8.837-34.876-3.593-43.713 11.712l-104.5 181c-8.836 15.305-3.592 34.875 11.713 43.712l73.778 42.596zM512 219c-91.127 0-165 73.873-165 165s73.873 165 165 165 165-73.873 165-165-73.873-165-165-165z m0 64c55.78 0 101 45.22 101 101s-45.22 101-101 101-101-45.22-101-101 45.22-101 101-101z"  horiz-adv-x="1024" />

    
    <glyph glyph-name="youhuiquan1" unicode="&#58911;" d="M632.38 75.47h-49.5c-9.94 0-18 8.06-18 18s8.06 18 18 18h49.5c9.94 0 18-8.06 18-18s-8.06-18-18-18zM916.23 75.47H753.88c-9.94 0-18 8.06-18 18s8.06 18 18 18h155.36V255.24c-67.59 5.47-120.86 60.27-120.86 126.84s53.27 121.37 120.86 126.84V656.53H114.76v-147.55c67.95-5.13 121.61-60.08 121.61-126.9 0-66.82-53.67-121.77-121.61-126.9v-143.71h391.61c9.94 0 18-8.06 18-18s-8.06-18-18-18h-398.6c-16 0-29.01 12.81-29.01 28.56V273.04c0 4.97 2.06 9.72 5.68 13.12s8.51 5.16 13.46 4.84c2.24-0.14 4.42-0.21 6.48-0.21 52.93 0 96 40.95 96 91.29s-43.06 91.29-96 91.29c-2.07 0-4.25-0.07-6.48-0.21-4.96-0.31-9.83 1.44-13.46 4.84-3.62 3.4-5.68 8.15-5.68 13.12V663.97c0 15.75 13.02 28.56 29.01 28.56h808.45c16 0 29.01-12.81 29.01-28.56v-172.8c0-4.95-2.04-9.68-5.64-13.08-3.6-3.4-8.45-5.17-13.38-4.89-2.06 0.12-3.97 0.17-5.85 0.17-52.93 0-96-40.95-96-91.29s43.07-91.29 96-91.29c1.87 0 3.78 0.06 5.85 0.17 4.92 0.29 9.78-1.49 13.38-4.89 3.6-3.4 5.64-8.13 5.64-13.08v-168.97c0.01-15.74-13.01-28.55-29-28.55zM420.88 401.85c-38.46 0-69.75 31.29-69.75 69.75s31.29 69.75 69.75 69.75 69.75-31.29 69.75-69.75c-0.01-38.46-31.29-69.75-69.75-69.75z m0 103.5c-18.61 0-33.75-15.14-33.75-33.75s15.14-33.75 33.75-33.75 33.75 15.14 33.75 33.75c-0.01 18.61-15.15 33.75-33.75 33.75zM608.38 215.1c-38.46 0-69.75 31.29-69.75 69.75s31.29 69.75 69.75 69.75 69.75-31.29 69.75-69.75-31.3-69.75-69.75-69.75z m0 103.5c-18.61 0-33.75-15.14-33.75-33.75s15.14-33.75 33.75-33.75 33.75 15.14 33.75 33.75-15.15 33.75-33.75 33.75zM383.38 227.1c-4.6 0-9.2 1.75-12.71 5.25-7.04 7.02-7.05 18.42-0.03 25.46l276.75 277.5c7.02 7.04 18.42 7.05 25.46 0.03 7.04-7.02 7.05-18.42 0.03-25.46l-276.75-277.5a18 18 0 0 0-12.75-5.28z"  horiz-adv-x="1024" />

    
    <glyph glyph-name="Success" unicode="&#58885;" d="M508.248559-57.897386c-60.0824 0-118.381178 11.772115-173.275415 34.991956-53.009308 22.420639-100.612489 54.513568-141.484361 95.385441-40.872896 40.872896-72.964802 88.475054-95.386464 141.485384-23.218818 54.894238-34.990932 113.193015-34.990933 173.275416s11.773138 118.381178 34.990933 173.275415c22.421662 53.009308 54.513568 100.612489 95.386464 141.484362 40.871873 40.872896 88.475054 72.964802 141.484361 95.386464 54.895261 23.218818 113.194038 34.990932 173.275415 34.990932 60.0824 0 118.380154-11.773138 173.275416-34.990932 53.009308-22.421662 100.611465-54.513568 141.484361-95.386464 40.871873-40.871873 72.964802-88.475054 95.385441-141.484362 23.218818-54.895261 34.991955-113.194038 34.991955-173.275415s-11.773138-118.381178-34.991955-173.275416c-22.420639-53.010331-54.513568-100.612489-95.385441-141.485384-40.872896-40.871873-88.475054-72.964802-141.484361-95.385441-54.895261-23.218818-113.193015-34.991955-173.275416-34.991956z m0 839.844794c-217.641879 0-394.706597-177.064718-394.706596-394.706597 0-217.642902 177.064718-394.706597 394.706596-394.706597s394.705574 177.063695 394.705574 394.706597c0.001023 217.641879-177.063695 394.706597-394.705574 394.706597zM448.493617 157.093107a25.485441 25.485441 0 0 0-16.624632 6.148024L250.937193 318.110337c-10.733459 9.188266-11.987009 25.337061-2.799766 36.07052 9.188266 10.732435 25.337061 11.988032 36.071543 2.798743l161.571863-138.297786L718.296483 534.585647c9.228175 10.69969 25.384134 11.890818 36.081777 2.660596 10.697643-9.229199 11.888771-25.38311 2.660596-36.081777L467.87606 165.965172c-5.058203-5.863545-12.199856-8.872065-19.382443-8.872065z"  horiz-adv-x="1024" />

    
    <glyph glyph-name="xiangqian" unicode="&#59285;" d="M851.2 416h-787.2c-19.2 0-32-12.8-32-32s12.8-32 32-32h787.2l-329.6-329.6c-12.8-12.8-12.8-32 0-44.8 12.8-12.8 32-12.8 44.8 0l361.6 361.6c25.6 25.6 25.6 64 0 89.6l-361.6 361.6c-12.8 12.8-32 12.8-44.8 0-12.8-12.8-12.8-32 0-44.8l329.6-329.6z"  horiz-adv-x="1024" />

    
    <glyph glyph-name="xianghou" unicode="&#59286;" d="M172.8 352h787.2c19.2 0 32 12.8 32 32s-12.8 32-32 32h-787.2l329.6 329.6c12.8 12.8 12.8 32 0 44.8-12.8 12.8-32 12.8-44.8 0l-361.6-361.6c-25.6-25.6-25.6-64 0-89.6l361.6-361.6c12.8-12.8 32-12.8 44.8 0 12.8 12.8 12.8 32 0 44.8l-329.6 329.6z"  horiz-adv-x="1024" />

    
    <glyph glyph-name="menu-fill" unicode="&#58922;" d="M201.216 121.856c-21.504 0-38.912 17.408-38.912 38.912 0 21.504 17.408 38.912 38.912 38.912H819.2c10.24 0 20.48-4.096 27.648-11.264 7.168-7.168 11.264-17.408 11.264-27.648s-4.096-20.48-11.264-27.648c-7.168-7.168-17.408-11.264-27.648-11.264H201.216z m0 223.232c-21.504 0-38.912 17.408-38.912 38.912 0 21.504 17.408 38.912 38.912 38.912H819.2c10.24 0 20.48-4.096 27.648-11.264 7.168-7.168 11.264-17.408 11.264-27.648 0-10.24-4.096-20.48-11.264-27.648-7.168-7.168-17.408-11.264-27.648-11.264H201.216z m0 222.72c-21.504 0-38.912 17.408-38.912 38.912 0 21.504 17.408 38.912 38.912 38.912H819.2c21.504 0 38.912-17.408 38.912-38.912 0-21.504-17.408-38.912-38.912-38.912H201.216z"  horiz-adv-x="1025" />

    
    <glyph glyph-name="zixun" unicode="&#58881;" d="M853.333 668.444V839.111H56.89V-71.11H967.11V668.444H853.333z m56.89-682.666H113.777V782.222h682.666v-682.666h56.89v512h56.888v-625.778zM227.556 156.444h455.11v-56.888h-455.11z m0 455.112v-170.667h455.11V668.444h-455.11v-56.888z m56.888 0h341.334v-113.778H284.444V611.556zM227.556 327.11h455.11v-56.889h-455.11z"  horiz-adv-x="1024" />

    
    <glyph glyph-name="zuji" unicode="&#58882;" d="M929.472 419.776c0 92.224-56.704 164.416-129.024 164.416-15.36 0-30.016-3.456-43.584-9.536 13.056 25.728 20.736 56.256 20.736 89.152 0 90.688-57.92 164.48-129.024 164.48-55.168 0-102.144-44.416-120.64-106.56-18.368 62.144-65.28 106.56-120.32 106.56-71.168 0-129.024-73.792-129.024-164.48 0-10.688 0.896-21.056 2.368-31.168-17.28 11.136-36.736 17.536-57.408 17.536-71.168 0-129.024-73.792-129.024-164.48 0-90.688 57.92-164.416 129.024-164.416 18.88 0 36.8 5.376 52.928 14.72-57.664-64.512-96-120.384-98.24-123.712-1.856-2.56-44.864-62.784-32.512-133.824 7.552-43.264 33.408-80.32 76.928-110.208 7.808-6.4 38.912-28.544 95.232-28.544 38.528 0 80.704 10.432 124.672 30.784 3.904 1.408 21.44 4.032 60.288 4.032 33.536 0 70.016-2.112 86.72-5.056 4.288-0.768 12.736-4.288 20.864-7.744 21.76-9.152 51.52-21.696 87.872-21.696 34.24 0 67.776 11.456 99.52 34.112 37.824 26.88 59.904 59.52 65.6 97.088 7.232 47.936-12.48 101.44-60.16 163.584-5.568 7.296-11.392 14.592-17.344 21.888 4.736-0.704 9.6-1.088 14.464-1.088 72.384 0 129.088 72.128 129.088 164.16z m-50.496 0c0-62.656-35.264-113.664-78.528-113.664-42.368 0-78.208 52.032-78.208 113.664 0 62.848 35.072 113.92 78.208 113.92 43.264 0 78.528-51.136 78.528-113.92z m-230.4 358.016c42.56 0 78.528-52.224 78.528-113.984s-35.968-113.984-78.528-113.984-78.528 52.224-78.528 113.984c0 61.824 35.968 113.984 78.528 113.984z m-240.896 0c42.368 0 78.208-52.224 78.208-113.984s-35.84-113.984-78.208-113.984c-42.56 0-78.528 52.224-78.528 113.984-0.064 61.824 35.968 113.984 78.528 113.984z m-184.128-406.08c-42.56 0-78.528 52.16-78.528 113.92 0 61.824 35.968 113.984 78.528 113.984 42.368 0 78.208-52.224 78.208-113.984s-35.776-113.92-78.208-113.92zM813.504 78.72c-3.584-23.808-18.304-44.544-44.928-63.488-23.424-16.64-46.4-24.768-70.336-24.768-26.112 0-49.472 9.856-68.224 17.728-11.776 4.928-21.888 9.216-31.808 10.944-19.84 3.52-58.176 5.824-95.424 5.824-61.952 0-75.968-6.272-80.832-8.448-37.952-17.536-72.96-26.368-104.128-26.368-42.432 0-62.4 16.448-62.912 16.832l-2.752 2.24c-32.32 21.952-51.328 48.064-56.576 77.504-8.896 49.728 23.296 95.424 24 96.448 0.96 1.408 95.744 139.328 209.088 228.992 25.408 20.16 50.24 30.4 73.728 30.4 40.256 0 66.048-30.72 66.176-30.912l2.688-2.88c1.152-1.088 118.784-108.992 191.936-204.672 38.912-50.752 55.36-91.712 50.304-125.376z m-207.04 366.272c-7.872 9.024-45.376 48.064-104.064 48.064-35.072 0-70.464-13.888-105.088-41.216-24.192-19.136-47.36-40.128-68.992-61.44 14.976 26.88 23.936 59.712 23.936 95.232 0 10.688-0.896 21.184-2.432 31.296 17.472-11.136 37.056-17.6 57.856-17.6 54.976 0 101.888 44.352 120.32 106.496 18.432-62.144 65.472-106.496 120.64-106.496 15.232 0 29.76 3.52 43.328 9.728-12.736-25.6-20.16-56.128-20.16-89.344 0-14.656 1.664-28.8 4.48-42.368-35.456 35.84-63.488 61.888-69.824 67.648z"  horiz-adv-x="1024" />

    
    <glyph glyph-name="lianxiwomen" unicode="&#58889;" d="M512 812C230.4 812 0 581.6 0 300s230.4-512 512-512 512 230.4 512 512S793.6 812 512 812zM512-148c-249.6 0-448 198.4-448 448 0 249.6 198.4 448 448 448s448-198.4 448-448C960 50.4 761.6-148 512-148zM691.2 261.6c-51.2 0-96-25.6-121.6-64C486.4 210.4 422.4 274.4 409.6 364c38.4 25.6 64 70.4 64 115.2C473.6 556 409.6 620 332.8 620 256 620 192 556 192 479.2 192 216.8 467.2-20 691.2-20l0 0c76.8 0 140.8 64 140.8 140.8C832 197.6 768 261.6 691.2 261.6zM691.2 31.2 691.2 31.2c-198.4 0-448 217.6-448 448 0 51.2 44.8 96 96 96s96-44.8 96-96c0-32-19.2-64-51.2-83.2L364.8 389.6l0-12.8c0-121.6 102.4-217.6 217.6-224l12.8 0 6.4 12.8c12.8 32 44.8 51.2 83.2 51.2 51.2 0 96-44.8 96-96C787.2 69.6 742.4 31.2 691.2 31.2z"  horiz-adv-x="1024" />

    
    <glyph glyph-name="wuliuxinxi" unicode="&#58986;" d="M992.15601391 73.31081482000002h-107.32899169a28.24447105 28.24447105 0 0 0 0 56.48894331H963.91154164V492.17632483L850.93365623 609.95577083h-169.4668275a28.24447105 28.24447105 0 0 0-28.24447227 28.24447104v84.73341436H60.08845836v-593.1338981h51.40493713a28.24447105 28.24447105 0 0 0 0-56.48894331H31.84398609a28.24447105 28.24447105 0 0 0-28.24447105 28.24447105V751.1781285a28.24447105 28.24447105 0 0 0 28.24447105 28.24447104h649.62284264a28.24447105 28.24447105 0 0 0 28.24447105-28.24447104v-84.73341437h153.36747947a28.24447105 28.24447105 0 0 0 20.33601984-8.75578678l129.07723344-134.72612838a28.24447105 28.24447105 0 0 0 7.90845243-19.48868547V101.55528587000003a28.24447105 28.24447105 0 0 0-28.24447105-28.24447105zM645.87879402 73.31081482000002h-264.08580742a28.24447105 28.24447105 0 0 0 0 56.48894331h264.08580742a28.24447105 28.24447105 0 0 0 0-56.48894331zM229.55528587-39.66707059999999a141.22235646 141.22235646 0 1 0 141.22235767 141.22235647 141.22235646 141.22235646 0 0 0-141.22235767-141.22235647z m0 225.95577082a84.73341437 84.73341437 0 1 1 84.73341435-84.73341435 84.73341437 84.73341437 0 0 1-84.73341435 84.73341435zM766.20024187-39.66707059999999a141.22235646 141.22235646 0 1 0 141.22235767 141.22235647 141.22235646 141.22235646 0 0 0-141.22235767-141.22235647z m0 225.95577082a84.73341437 84.73341437 0 1 1 84.73341436-84.73341435 84.73341437 84.73341437 0 0 1-84.73341436 84.73341435zM681.46682873 327.51105669000003H31.84398609a28.24447105 28.24447105 0 0 0 0 56.48894331h649.62284264a28.24447105 28.24447105 0 0 0 0-56.48894331zM681.46682873 327.51105669000003a28.24447105 28.24447105 0 0 0-28.24447227 28.24447226V638.20024187a28.24447105 28.24447105 0 0 0 56.48894332 0v-282.44471292a28.24447105 28.24447105 0 0 0-28.24447105-28.24447226zM879.1781285 412.24447105a28.24447105 28.24447105 0 0 0-20.05357545 8.19089681l-84.73341437 84.73341436a28.24447105 28.24447105 0 0 0 40.10714969 40.10714969l84.73341436-84.73341435a28.24447105 28.24447105 0 0 0 0-40.1071497A28.24447105 28.24447105 0 0 0 879.1781285 412.24447105z"  horiz-adv-x="1024" />

    
    <glyph glyph-name="loading_icon" unicode="&#59060;" d="M511.999995 895.99999a28.42624 28.42624 0 0 1-28.44672-28.44672V639.999992a28.44672 28.44672 0 1 1 56.89344 0V867.55327A28.42624 28.42624 0 0 1 511.999995 895.99999zM511.999995 156.446717A28.42624 28.42624 0 0 1 483.553275 127.999997v-227.553277a28.44672 28.44672 0 1 1 56.89344 0V127.999997A28.42624 28.42624 0 0 1 511.999995 156.446717zM190.197758 746.024951a28.4416 28.4416 0 0 1-40.222719-40.222719l160.890878-160.880639a28.4416 28.4416 0 1 1 40.222719 40.22272zM713.134073 223.078396a28.4416 28.4416 0 0 1-40.22272-40.222719l160.890879-160.880638a28.4416 28.4416 0 1 1 40.222719 40.222719zM284.446717 383.999995A28.42624 28.42624 0 0 1 255.999997 412.446715H28.44672a28.44672 28.44672 0 0 1 0-56.89344H255.999997A28.42624 28.42624 0 0 1 284.446717 383.999995zM995.55327 412.446715H767.999992a28.44672 28.44672 0 1 1 0-56.89344h227.553278a28.44672 28.44672 0 0 1 0 56.89344zM310.865917 223.078396L149.975039 62.197758a28.4416 28.4416 0 1 1 40.222719-40.222719l160.880638 160.890878a28.4416 28.4416 0 1 1-40.222719 40.222719zM693.022713 536.575993a28.35456 28.35456 0 0 1 20.11136 8.33536l160.890878 160.890879a28.4416 28.4416 0 1 1-40.222719 40.222719L672.921593 585.134073A28.44672 28.44672 0 0 1 693.022713 536.575993z"  horiz-adv-x="1024" />

    
    <glyph glyph-name="zhuce" unicode="&#59011;" d="M768.8312288 274.37381973000004c24.29066453 0 43.94543893 19.69734613 43.94543893 43.94216427 0 13.99390293-6.5308512 26.4399616-16.70754026 34.48481813l0.2270464 0.27725867c-33.81568747 26.17798507-71.40929067 47.63493867-112.0047072 63.17013547 51.66828267 44.3296704 84.5397632 109.98858133 84.5397632 183.41509013 0 133.462752-108.2278816 241.69172587-241.69172587 241.69172587-133.46493547 0-241.69281707-108.22897387-241.69281707-241.69172587 0-73.4265088 32.87257173-139.08541973 84.5408544-183.41509013-164.8758976-63.25527787-282.2030912-222.680976-282.2893248-409.91764587l0-0.0851424c0.0862336-24.20224747 19.741008-43.85920427 43.94543894-43.85920427 24.28848107 0 43.85811307 19.65695787 43.94325546 43.85920427 0 193.84283947 157.75450773 351.55368533 351.55368534 351.55368533 79.46397227 0 152.61977173-26.80345387 211.51423466-71.40819946C746.52612693 278.94967253000004 757.138352 274.37381973000004 768.8312288 274.37381973000004zM527.13950293 445.8580704c-84.79846507 0-153.80303147 69.00565867-153.80303146 153.80521493 0 84.79846507 69.00674987 153.80412373 153.80303146 153.80412374 84.79846507 0 153.80412373-69.00565867 153.80412374-153.80412374S611.937968 445.8580704 527.13950293 445.8580704zM936.45460373 127.09181547000003L870.5380832 127.09181547000003l0 65.918704c0.0010912 18.194256-14.76236693 32.95771413-32.95771413 32.95771413-18.2390112 0-32.95771413-14.76345813-32.95771414-32.95771413l0-65.918704-65.91652053 0c-18.23682773 0-32.95662293-14.76127467-32.95662293-32.95771414 0-18.194256 14.7197952-32.95771413 32.95662293-32.95771413l65.91652053 0 0-65.91652053c0-18.19643947 14.718704-32.95553173 32.95771414-32.95553174 18.19534827 0 32.95771413 14.75909227 32.95771413 32.95553174l0 65.91652053 65.91652053 0c18.19534827 0 32.95771413 14.76345813 32.95771414 32.95771413C969.41231893 112.32944853000004 954.6510432 127.09181547000003 936.45460373 127.09181547000003z"  horiz-adv-x="1024" />

    
    <glyph glyph-name="xiajiantou" unicode="&#58901;" d="M862.752 569.9839999999999H161.248l349.696-371.936L862.72 569.9839999999999z"  horiz-adv-x="1024" />

    
    <glyph glyph-name="shanchu" unicode="&#58884;" d="M511.998977-65.61004400000002c-248.306272 0-449.607998 201.307865-449.607998 449.614138S263.692704 833.610044 511.998977 833.610044c248.364601 0 449.610044-201.299679 449.610044-449.606974S760.363577-65.61004400000002 511.998977-65.61004400000002L511.998977-65.61004400000002zM718.186989 515.078361c8.457626 8.462742 8.457626 22.202675 0 30.658254l-45.927005 45.871747c-8.459672 8.459672-22.138206 8.459672-30.599925 0L511.603981 461.55126 381.546879 591.6083619999999c-8.459672 8.459672-22.1423 8.459672-30.599925 0l-45.927005-45.871747c-8.457626-8.455579-8.457626-22.195511 0-30.658254l130.057101-130.053008L305.019948 254.968252c-8.457626-8.455579-8.457626-22.140253 0-30.599925L350.946954 178.444391c8.457626-8.404414 22.140253-8.404414 30.599925 0l130.057101 130.057101L641.661082 178.444391c8.461719-8.404414 22.140253-8.404414 30.599925 0l45.927005 45.922912c8.457626 8.459672 8.457626 22.144346 0 30.599925L588.129888 385.02433 718.186989 515.078361 718.186989 515.078361z"  horiz-adv-x="1024" />

    
    <glyph glyph-name="denglu" unicode="&#58928;" d="M209.454545 174.54545499999995L209.454545-128 954.181818-128 954.181818 896 209.454545 896 209.454545 593.454545 302.545455 593.454545 302.545455 802.909091 861.090909 802.909091 861.090909-34.90909099999999 302.545455-34.90909099999999 302.545455 174.54545499999995ZM69.818182 337.45454500000005L605.090909 337.45454500000005 488.727273 151.27272700000003 581.818182 151.27272700000003 721.454545 384 581.818182 616.727273 488.727273 616.727273 605.090909 430.545455 69.818182 430.545455Z"  horiz-adv-x="1024" />

    
    <glyph glyph-name="75bianji" unicode="&#58959;" d="M816.762587 447.370283c-0.375553-0.376577-2.031263 0.674359-3.701299 2.339278L579.471183 683.30376c-1.670036 1.664919-2.714831 3.324722-2.343371 3.701299l52.626591 52.622498c0.376577 0.376577 2.036379-0.668219 3.701299-2.339278L867.050923 503.699196c1.664919-1.670036 2.714831-3.325745 2.339278-3.701299L816.762587 447.370283 816.762587 447.370283zM816.762587 447.370283M931.972539 695.027779 823.67195 803.328367c-27.267017 27.265994-66.552765 33.935903-96.001471 18.822694-6.191003-3.174296-11.95324-7.290033-17.070794-12.406564l-32.269961-32.270984c-2.334161-2.334161-4.439102-4.813632-6.368034-7.392364 0.37146-0.48914 0.830925-1.020236 1.362021-1.553379L897.270179 544.583348c0.493234-0.493234 0.981351-0.918929 1.440815-1.27504 2.582825 1.928932 5.068436 4.03899 7.401574 6.377244l32.270984 32.269961c5.116531 5.116531 9.232269 10.883885 12.411681 17.074887C965.908442 628.475014 959.234439 667.767925 931.972539 695.027779L931.972539 695.027779zM931.972539 695.027779M397.547807 29.605527c-1.460258-5.259794 378.662179 375.505279 378.662179 375.505279 2.696412 2.695389 4.594645 5.164626 4.242627 5.517667l-49.423643 49.424666c-0.352017 0.350994-2.822278-1.549286-5.517667-4.243651L352.77509 82.564693c-0.145309-0.151449-8.470929-4.995781-8.612145-5.14109 0 0-143.467529-41.679261-147.080823-41.909505-3.004427-0.193405-18.252713 17.070794-18.252713 17.070794s-14.283308 12.700253-14.283308 15.771195 45.566802 156.617014 45.566802 156.617014l370.94952 373.239679c2.695389 2.695389 4.614088 5.146207 4.282536 5.478781l-46.225811 46.225811c-0.326435 0.327458-2.783393-1.587148-5.478781-4.281513L156.081313 268.067594c-0.346901-0.346901-5.273097-5.336542-5.834892-7.278777L70.856279-6.963343c-3.520173-5.551436-5.565762-12.133342-5.565762-19.194154 0-19.829628 16.074094-35.908838 35.908838-35.908838 6.719028 0 13.002129 1.851161 18.378579 5.063319 0.630357-0.11154 1.839905 0.033769 3.192715 0.424672 0 0 256.611425 75.181283 260.708743 78.507028M687.649997 503.27964l-61.518099 61.519122c-0.440022 0.438998-2.954285-1.363044-5.614881-4.024663L247.6928 187.949882c-2.143826-2.143826-3.710508-4.174066-4.013407-5.116531l50.448996-11.294231c2.554172-0.9967 4.498454-3.213181 5.107321-5.938246 0.078795-0.356111 0.13303-0.717338 0.166799-1.087774l6.703679-43.506886c1.060145 0.547469 2.833535 1.969864 4.697999 3.833305L683.627381 497.664759C686.287977 500.324332 688.090019 502.839619 687.649997 503.27964L687.649997 503.27964zM687.649997 503.27964"  horiz-adv-x="1024" />

    
    <glyph glyph-name="eye" unicode="&#60084;" d="M950.857143 347.428571q-86.820571 134.875429-217.746286 201.728 34.889143-59.465143 34.889143-128.585143 0-105.691429-75.117714-180.882286t-180.882286-75.117714-180.882286 75.117714-75.117714 180.882286q0 69.12 34.889143 128.585143-130.852571-66.852571-217.746286-201.728 75.995429-117.174857 190.537143-186.587429t248.32-69.412571 248.32 69.412571 190.537143 186.587429zM539.428571 566.857143q0 11.410286-7.972571 19.456t-19.456 7.972571q-71.460571 0-122.587429-51.126857t-51.126857-122.587429q0-11.410286 7.972571-19.456t19.456-7.972571 19.456 7.972571 7.972571 19.456q0 49.152 34.889143 83.968t83.968 34.889143q11.410286 0 19.456 7.972571t7.972571 19.456zM1024 347.428571q0-19.456-11.410286-39.424-80.018286-131.437714-215.113143-210.578286t-285.403429-79.140571-285.403429 79.433143-215.113143 210.285714q-11.410286 19.968-11.410286 39.424t11.410286 39.424q80.018286 130.852571 215.113143 210.285714t285.403429 79.433143 285.403429-79.433143 215.113143-210.285714q11.410286-19.968 11.410286-39.424z"  horiz-adv-x="1024" />

    
    <glyph glyph-name="cartplus" unicode="&#58992;" d="M726.896 493.728q0 14.848-10.848 25.728t-25.728 10.848l-73.152 0 0 73.152q0 14.848-10.848 25.728t-25.728 10.848-25.728-10.848-10.848-25.728l0-73.152-73.152 0q-14.848 0-25.728-10.848t-10.848-25.728 10.848-25.728 25.728-10.848l73.152 0 0-73.152q0-14.848 10.848-25.728t25.728-10.848 25.728 10.848 10.848 25.728l0 73.152 73.152 0q14.848 0 25.728 10.848t10.848 25.728zM397.776 18.272q0-30.272-21.44-51.712t-51.712-21.44-51.712 21.44-21.44 51.712 21.44 51.712 51.712 21.44 51.712-21.44 21.44-51.712zM909.776 18.272q0-30.272-21.44-51.712t-51.712-21.44-51.712 21.44-21.44 51.712 21.44 51.712 51.712 21.44 51.712-21.44 21.44-51.712zM982.896 640l0-292.576q0-13.728-9.152-24.288t-23.424-12.288l-596.576-69.728q0.576-4 2.56-12.288t3.424-15.136 1.44-12.576q0-9.152-13.728-36.576l525.728 0q14.848 0 25.728-10.848t10.848-25.728-10.848-25.728-25.728-10.848l-585.152 0q-14.848 0-25.728 10.848t-10.848 25.728q0 8 6.272 22.56t16.864 34.016 11.712 21.728l-101.152 470.272-116.576 0q-14.848 0-25.728 10.848t-10.848 25.728 10.848 25.728 25.728 10.848l146.272 0q9.152 0 16.288-3.712t11.424-8.864 7.424-14.016 4.288-15.136 3.136-16.864 2.56-14.56l686.272 0q14.848 0 25.728-10.848t10.848-25.728z"  horiz-adv-x="1024" />

    
    <glyph glyph-name="creditcard" unicode="&#59358;" d="M928 736H96c-17.7 0-32-14.3-32-32v-640c0-17.7 14.3-32 32-32h832c17.7 0 32 14.3 32 32V704c0 17.7-14.3 32-32 32z m-792-72h752v-120H136V664z m752-560H136V456h752v-352zM651 168h165c4.4 0 8 3.6 8 8v72c0 4.4-3.6 8-8 8H651c-4.4 0-8-3.6-8-8v-72c0-4.4 3.6-8 8-8z"  horiz-adv-x="1024" />

    
    <glyph glyph-name="times" unicode="&#59452;" d="M572.16 384l183.466667 183.04a42.666667 42.666667 0 1 1-60.586667 60.586667L512 444.16l-183.04 183.466667a42.666667 42.666667 0 0 1-60.586667-60.586667l183.466667-183.04-183.466667-183.04a42.666667 42.666667 0 0 1 0-60.586667 42.666667 42.666667 0 0 1 60.586667 0l183.04 183.466667 183.04-183.466667a42.666667 42.666667 0 0 1 60.586667 0 42.666667 42.666667 0 0 1 0 60.586667z"  horiz-adv-x="1024" />

    
    <glyph glyph-name="delete" unicode="&#58904;" d="M677.647059 640l0 90.352941c0 37.436235-23.461647 60.235294-61.771294 60.235294L408.094118 790.588235c-38.249412 0-61.741176-22.799059-61.741176-60.235294l0-90.352941-180.705882 0 0-60.235294 60.235294 0 0-512c0-54.272 33.972706-90.352941 90.352941-90.352941l391.529412 0c55.085176 0 90.352941 33.490824 90.352941 90.352941l0 512 60.235294 0 0 60.235294L677.647059 640zM406.588235 730.352941l210.823529 0-1.264941-90.352941L406.588235 640 406.588235 730.352941zM737.882353 37.647059l-451.764706 0 0 542.117647 451.764706 0L737.882353 37.647059zM466.823529 519.529412l-58.729412 0-1.505882-391.529412 60.235294 0L466.823529 519.529412zM617.411765 519.529412l-60.235294 0 0-391.529412 60.235294 0L617.411765 519.529412z"  horiz-adv-x="1024" />

    
    <glyph glyph-name="lock" unicode="&#58908;" d="M818.247 483.673h-45.989v70.992c0 152.308-123.463 275.779-275.778 275.779S220.698 706.973 220.698 554.665v-70.992h-45.987c-25.379 0-45.988-20.566-45.988-45.987v-455.407c0-25.428 20.56-45.989 45.988-45.989h643.536c25.377 0 45.988 20.56 45.988 45.989V437.686c-0.045 25.42-20.611 45.987-45.988 45.987z m-137.915 0H312.625v70.992c0 101.554 82.345 183.853 183.855 183.853 101.51 0 183.853-82.343 183.853-183.853v-70.992h-0.001z m0 0"  horiz-adv-x="1024" />

    
    <glyph glyph-name="spinner" unicode="&#59475;" d="M384 768A4 4 12600 1 0 640 768 4 4 12600 1 0 384 768zM655.52 655.52A4 4 12600 1 0 911.52 655.52 4 4 12600 1 0 655.52 655.52zM832 384A2 2 12600 1 0 960 384 2 2 12600 1 0 832 384zM719.52 112.48A2 2 12600 1 0 847.52 112.48 2 2 12600 1 0 719.52 112.48zM448 0A2 2 12600 1 0 576 0 2 2 12600 1 0 448 0zM176.48 112.48A2 2 12600 1 0 304.48 112.48 2 2 12600 1 0 176.48 112.48zM144.48 655.52A3 3 12600 1 0 336.48 655.52 3 3 12600 1 0 144.48 655.52zM56 384A2.25 2.25 12600 1 0 200 384 2.25 2.25 12600 1 0 56 384z"  horiz-adv-x="1024" />

    
    <glyph glyph-name="jiantouyou" unicode="&#58903;" d="M723.696401 362.897256c0.486519 0.973037 1.337926 1.824445 1.702815 2.797482 8.514075 17.757928 5.716593 39.651265-9.365483 53.881934L372.30835 744.692719c-18.730966 17.757928-48.28697 16.906521-66.044898-1.824445-17.757928-18.730966-16.906521-48.28697 1.824445-66.044898l308.452785-291.789524L309.304193 88.987291c-18.609336-17.879558-19.095855-47.435562-1.216296-66.044898 9.122224-9.487112 21.406818-14.352298 33.569783-14.352298 11.676446 0 23.352892 4.378667 32.353486 13.136002l340.563012 328.278418c0.608148 0.608148 0.851408 1.581185 1.581185 2.189334 0.486519 0.486519 0.973037 0.851408 1.581185 1.337926C720.53403 356.329255 721.871956 359.734885 723.696401 362.897256L723.696401 362.897256zM723.696401 362.897256"  horiz-adv-x="1024" />

    
    <glyph glyph-name="jiantou-shang-cuxiantiao" unicode="&#59047;" d="M512 460.8L266.666667 215.466667c-14.933333-14.933333-40.533333-14.933333-55.466667 0l-4.266667 4.266666C192 234.666667 192 260.266667 206.933333 277.333333l275.2 275.2c8.533333 8.533333 19.2 12.8 29.866667 10.666667 10.666667 0 21.333333-4.266667 29.866667-10.666667L817.066667 277.333333c14.933333-14.933333 14.933333-40.533333 0-55.466666l-4.266667-4.266667c-14.933333-14.933333-40.533333-14.933333-55.466667 0L512 460.8z"  horiz-adv-x="1024" />

    
    <glyph glyph-name="jiantou-xia-cuxiantiao" unicode="&#59049;" d="M512 307.2L266.666667 552.533333c-14.933333 14.933333-40.533333 14.933333-55.466667 0l-4.266667-4.266666c-14.933333-14.933333-14.933333-40.533333 0-57.6l275.2-275.2c8.533333-8.533333 19.2-12.8 29.866667-10.666667 10.666667 0 21.333333 4.266667 29.866667 10.666667L817.066667 490.666667c14.933333 14.933333 14.933333 40.533333 0 55.466666l-4.266667 4.266667c-14.933333 14.933333-40.533333 14.933333-55.466667 0L512 307.2z"  horiz-adv-x="1024" />

    
    <glyph glyph-name="tongzhi" unicode="&#58888;" d="M48 571.2S44.8 592 68.8 592H224S387.2 768 545.6 827.2h57.6v-828.8H544s-180.8 68.8-320 236.8H65.6S48 235.2 48 256V571.2zM700.8 686.4l139.2 121.6s86.4 14.4 75.2-60.8c-54.4-60.8-140.8-139.2-140.8-139.2s-102.4-25.6-73.6 78.4zM769.6 227.2l137.6-137.6s20.8-89.6-57.6-83.2c-67.2 52.8-156.8 137.6-156.8 137.6s-33.6 104 76.8 83.2zM739.2 432s-9.6 40 38.4 40h176s41.6 9.6 41.6-40-8-57.6-40-57.6H760s-27.2-9.6-20.8 57.6z"  horiz-adv-x="1024" />

    
    <glyph glyph-name="denglu-copy" unicode="&#58938;" d="M512 300c-152 0-276 124-276 276s124 280 276 280 276-124 276-276-124-280-276-280zM512 776c-108 0-196-88-196-196s88-196 196-196 196 88 196 196-88 196-196 196zM148-84c-20 0-40 16-40 40 0 8 0 12 0 16 0 224 184 408 408 408 24 0 40-16 40-40s-16-40-40-40c-180 0-328-148-328-328v-12c0-24-20-44-40-44v0zM876-80v0c-24 0-40 16-40 40v12c0 180-148 328-328 328-24 0-40 16-40 40s16 40 40 40c224 0 408-184 408-408 0-4 0-8 0-12 0-24-16-40-40-40z"  horiz-adv-x="1024" />

    
    <glyph glyph-name="gouwuche1" unicode="&#58906;" d="M964.91257156 644.85942844c-6.49542844 8.47028531-16.57371469 13.42628531-27.22114312 13.42628531L218.62914311 658.28571469 188.42857156 802.4605715600001C185.11485687 818.32971469 171.11942844 829.71428531 154.88 829.71428531L66.28571469 829.71428531C47.336 829.71428531 32 814.38 32 795.42857156s15.33428531-34.28571469 34.28571469-34.28571469l60.73714312 0 130.71428532-624.17485687c3.31542844-15.87085687 17.31085687-27.25371469 33.54857156-27.25371469L807.71428531 109.71428531000004c18.95142844 0 34.28571469 15.33428531 34.28571469 34.28571469s-15.33428531 34.28571469-34.28571469 34.28571469l-488.57142844 0-21.52971468 102.85714312L854.85714313 281.14285686999995c15.50228531 0 29.09657156 10.41257156 33.11314312 25.41257157l82.83428531 308.57142843C973.58514313 625.40571469 971.37542844 636.42171469 964.91257156 644.85942844zM828.57371469 349.71428531000004L283.25085687 349.71428531000004l-50.256 240 660 0L828.57371469 349.71428531000004zM357.71428531 75.42857156000002c-47.27657156 0-85.71428531-38.43771469-85.71428531-85.71428531s38.43771469-85.71428531 85.71428531-85.71428531 85.71428531 38.43771469 85.71428532 85.71428531S404.99085689 75.42857156000002 357.71428531 75.42857156000002zM357.71428531-44.57142843999998c-18.91714311 0-34.28571469 15.36857156-34.28571469 34.28571469s15.36857156 34.28571469 34.28571469 34.28571469 34.28571469-15.36857156 34.28571469-34.28571469S376.63142844-44.57142843999998 357.71428531-44.57142843999998zM734.85714313 75.42857156000002c-47.27657156 0-85.71428531-38.43771469-85.71428532-85.71428531s38.43771469-85.71428531 85.7142853-85.71428531 85.71428531 38.43771469 85.71428533 85.71428531S782.13371469 75.42857156000002 734.85714313 75.42857156000002zM734.85714313-44.57142843999998c-18.91714311 0-34.28571469 15.36857156-34.28571469 34.28571469s15.36857156 34.28571469 34.28571469 34.28571469 34.28571469-15.36857156 34.28571468-34.28571469S753.77428531-44.57142843999998 734.85714313-44.57142843999998z"  horiz-adv-x="1024" />

    
    <glyph glyph-name="sousuo" unicode="&#59016;" d="M904.02133333-59.10755555000003L729.6 243.08622221999997c62.464 47.21777778 107.17866667 113.55022222 127.88622222 190.464 24.46222222 91.36355555 11.94666667 186.93688889-35.38488889 268.8568889S698.42488888 843.03644445 606.94755555 867.49866667c-91.36355555 24.46222222-186.93688889 11.94666667-268.85688889-35.38488889S197.46133333 708.43733333 172.99911111 616.96s-11.94666667-186.93688889 35.38488889-268.85688888 123.67644445-140.62933333 215.15377778-165.09155557c30.49244445-8.192 61.44-12.17422222 92.27377777-12.17422222 44.60088889 0 88.86044445 8.53333333 130.61688889 25.25866667l174.87644444-302.87644445 82.71644445 47.6728889zM448.22755555 275.28533332999996c-66.78755555 17.86311111-122.53866667 60.64355555-157.12711111 120.49066667-71.33866667 123.56266667-28.89955555 282.05511111 94.66311111 353.39377778 40.61866667 23.43822222 85.10577778 34.58844445 128.91022223 34.58844444 89.42933333 0 176.58311111-46.42133333 224.48355555-129.25155555 71.33866667-123.56266667 28.89955555-282.05511111-94.66311111-353.39377778-59.73333333-34.58844445-129.47911111-43.69066667-196.26666667-25.82755556z"  horiz-adv-x="1024" />

    
    <glyph glyph-name="youtube" unicode="&#59607;" d="M832 768 192 768c-105.6 0-192-86.4-192-192l0-384c0-105.6 86.4-192 192-192l640 0c105.6 0 192 86.4 192 192L1024 576C1024 681.6 937.6 768 832 768zM384 128 384 640l320-256L384 128z"  horiz-adv-x="1024" />

    
    <glyph glyph-name="facebook" unicode="&#58912;" d="M730.73553687 799.95478312l0-133.67193-79.48978593 0c-29.03567344 0-48.61983563-6.07076438-58.75152657-18.21229218-10.13169094-12.14152781-15.19705594-30.36341344-15.19705593-54.667575l0-95.69224032 148.35093843 0-19.73478-149.87534437L577.29716844 347.83539937l0-384.29432812L422.36701156-36.45892875000004 422.36701156 347.83444031 293.26350312 347.83444031 293.26350312 497.70978469l129.10254844 0 0 110.37316687c0 62.77887562 17.55321938 111.47354062 52.65965719 146.08207594 35.10547875 34.60949438 81.85554188 51.9142425 140.25019031 51.9142425 49.623315 0 88.10954156-2.02039031 115.45963875-6.06021094L730.73553687 799.95478312 730.73553687 799.95478312z"  horiz-adv-x="1024" />

    
    <glyph glyph-name="Instagram" unicode="&#59030;" d="M525.446 186.235c109.826 0 197.689 89.692 197.689 197.689s-89.692 197.689-197.689 197.689c-109.826 0-197.689-89.692-197.689-197.689s89.692-197.689 197.689-197.689zM745.099 751.847c-10.983 0-20.134-9.151-20.134-20.134v-100.676c0-10.983 9.151-20.134 20.134-20.134h100.676c10.983 0 20.134 9.151 20.134 20.134v100.676c0 10.983-9.151 20.134-20.134 20.134h-100.676zM186.812 808.591v-170.234h27.457v170.234h-27.457zM243.557 808.591v-170.234h27.457v170.234h-27.457zM300.3 808.591v-170.234h27.457v170.234h-27.457zM336.911 554.1569999999999h-234.298v173.893c0 43.93 36.607 80.54 80.54 80.54h688.251c45.761 0 80.54-36.607 80.54-80.54v-173.893h-234.298c-47.591 51.251-115.321 84.201-190.367 84.201-76.879 0-144.606-32.949-190.367-84.201zM754.251 497.413h195.859v-417.342c0-67.726-54.915-120.811-120.811-120.811h-607.711c-67.726 0-120.811 54.915-120.811 120.811v417.342h195.859c-16.473-34.779-25.627-73.219-25.627-113.49 0-140.947 113.49-254.432 254.432-254.432s254.432 113.49 254.432 254.432c1.83 40.271-7.321 78.709-25.627 113.49z"  horiz-adv-x="1024" />

    
    <glyph glyph-name="pinterest" unicode="&#59124;" d="M923.42891469 384c0-227.14285688-184.28571469-411.42857156-411.42857157-411.42857156-40.73142844 0-79.26857156 5.89714313-116.77714312 17.14285687 15.53142844 24.65142844 33.22285687 56.26285687 41.79428531 87.84 0 0 4.83428531 18.20571469 28.93714313 113.04 13.92-27.32571469 55.71428531-51.42857156 100.18285687-51.42857062 132.30857156 0 222.30857156 120.54857156 222.30857156 282.30857062 0 121.61142844-103.40571469 235.71428531-260.88 235.71428625-195.01714312 0-293.58857156-140.36571469-293.58857156-257.14285687 0-70.73142844 26.77714313-133.92 84.10285781-157.50857156 9.12-3.73714313 17.69142844 0 20.36571375 10.73142843 2.16 6.96 6.41142844 25.16571469 8.57142844 32.67428532 2.67428531 10.73142844 1.61142844 13.92-5.89714219 23.04-16.59428531 19.81714313-27.32571469 45.01714313-27.32571468 80.88 0 103.92 77.69142844 197.14285688 202.49142843 197.14285781 110.36571469 0 171.42857156-67.50857156 171.42857157-158.02285781 0-118.38857156-52.49142844-218.57142844-130.73142844-218.57142844-42.85714313 0-75.01714313 35.34857156-64.83428531 79.26857156 12.30857156 51.97714313 36.41142844 108.20571469 36.41142843 145.71428531 0 33.73714313-18.20571469 62.16-55.71428625 62.16-43.92 0-79.26857156-45.53142844-79.26857156-106.59428531 0 0 0-39.12 13.40571469-65.34857156-45.01714313-190.73142844-53.04-223.92-53.04-223.92-7.50857156-31.06285687-8.02285688-65.89714312-6.96-94.83428531A411.49714313 411.49714313 0 0 0 100.57177156 384C100.57177156 611.14285688 284.85748531 795.42857156 512.00034313 795.42857156s411.42857156-184.28571469 411.42857156-411.42857156z"  horiz-adv-x="1024" />

    
    <glyph glyph-name="twitter" unicode="&#58965;" d="M1022.037333 701.056a426.666667 426.666667 0 0 0-120.533333-33.066667 211.541333 211.541333 0 0 1 92.288 116.181334c-40.576-23.68-85.546667-40.917333-133.418667-50.517334a209.92 209.92 0 0 1-357.717333-191.232C328.149333 550.656 173.482667 634.4533329999999 69.973333 761.130667a205.738667 205.738667 0 0 1-28.416-105.6c0-72.96 37.12-137.088 93.354667-174.762667a209.237333 209.237333 0 0 0-95.061333 26.282667v-2.602667a210.048 210.048 0 0 1 168.362666-205.952 213.162667 213.162667 0 0 0-94.378666-3.626667 210.645333 210.645333 0 0 1 196.437333-145.792 421.034667 421.034667 0 0 0-260.352-89.813333c-16.64 0-33.237333 0.981333-49.92 2.858667a597.12 597.12 0 0 1 322.432-94.250667c386.304 0 597.290667 319.829333 597.290667 596.736 0 8.917333 0 17.92-0.64 26.88a423.936 423.936 0 0 1 104.96 108.714667l-2.005334 0.853333z"  horiz-adv-x="1024" />

    


  </font>
</defs>
</svg>
